<svg width="158" height="36" viewBox="0 0 158 36" fill="none" xmlns="http://www.w3.org/2000/svg">
<path d="M43.7326 15.7006C42.7471 16.6541 41.5208 17.1309 40.0536 17.1309C38.5864 17.1309 37.3601 16.6541 36.3965 15.7006C35.433 14.747 34.9512 13.5768 34.9512 12.1898C34.9512 10.8245 35.433 9.63262 36.4184 8.67908C37.4039 7.72555 38.6302 7.24878 40.0974 7.24878C41.5646 7.24878 42.7909 7.72555 43.7545 8.67908C44.718 9.63262 45.1998 10.8029 45.1998 12.1898C45.1998 13.5768 44.7399 14.747 43.7326 15.7006ZM37.9951 14.3136C38.5645 14.8987 39.2433 15.1805 40.0755 15.1805C40.9077 15.1805 41.6303 14.8771 42.1559 14.3136C42.6814 13.7502 42.988 13.0133 42.988 12.1682C42.988 11.3447 42.7033 10.6078 42.1559 10.0444C41.5865 9.45925 40.9077 9.17752 40.0755 9.17752C39.2433 9.17752 38.5207 9.48092 37.9951 10.0444C37.4477 10.6078 37.163 11.3447 37.163 12.1898C37.163 13.0133 37.4477 13.7502 37.9951 14.3136Z" fill="white"/>
<path d="M46.7544 11.7352V9.89315C46.7544 9.0263 46.9515 8.37616 47.3894 7.9644C47.8274 7.55265 48.4625 7.35761 49.2946 7.33594L49.4917 8.20279C48.5282 8.28947 48.0683 8.76624 48.134 9.54641H48.988V11.7352H46.7544Z" fill="white"/>
<path d="M50.7828 16.9793V15.3757L56.1042 9.24269H50.958V7.40063H58.8634V8.98264L53.5201 15.1156H58.8415V16.9577H50.7828V16.9793Z" fill="white"/>
<path d="M64.142 17.1095C62.5652 17.1095 61.1856 16.5893 60.025 15.5708L61.2732 14.0755C62.2149 14.8556 63.1784 15.2457 64.1638 15.2457C64.6018 15.2457 64.9303 15.1807 65.1931 15.0073C65.4559 14.834 65.5654 14.6173 65.5654 14.3139C65.5654 14.0321 65.434 13.8154 65.1712 13.6421C64.9084 13.4687 64.3828 13.2953 63.5945 13.0786C63.0251 12.9486 62.5871 12.7969 62.2587 12.6668C61.9302 12.5368 61.5798 12.3634 61.2951 12.1467C60.9885 11.93 60.7477 11.6483 60.6163 11.3232C60.463 10.9982 60.4192 10.5864 60.4192 10.1313C60.4192 9.26445 60.7258 8.57097 61.3608 8.05086C61.9959 7.50908 62.8061 7.24902 63.8135 7.24902C65.1712 7.24902 66.3975 7.66078 67.4049 8.46262L66.3099 10.0446C65.3902 9.41615 64.558 9.11275 63.7916 9.11275C63.3974 9.11275 63.0908 9.17777 62.8718 9.35114C62.6528 9.52451 62.5652 9.71955 62.5652 9.9796C62.5652 10.283 62.6966 10.5214 62.9594 10.6731C63.2222 10.8248 63.7916 10.9982 64.6456 11.2365C65.6968 11.5183 66.4851 11.865 66.9669 12.2984C67.4706 12.7319 67.7114 13.3387 67.7114 14.1405C67.7114 15.0724 67.4049 15.8092 66.7479 16.3293C66.069 16.8494 65.215 17.1095 64.142 17.1095Z" fill="white"/>
<path d="M73.5805 17.131C72.2447 17.131 71.2374 16.7626 70.4928 16.0475C69.7702 15.3323 69.3979 14.2704 69.3979 12.8835V7.40063H71.5221V12.8185C71.5221 13.577 71.7192 14.1621 72.0695 14.5738C72.4199 14.9856 72.9455 15.1806 73.6243 15.1806C74.3032 15.1806 74.8069 14.9856 75.1791 14.5955C75.5295 14.2054 75.7266 13.642 75.7266 12.8835V7.40063H77.8508V12.7968C77.8508 14.2271 77.4785 15.289 76.734 16.0258C75.9456 16.741 74.8945 17.131 73.5805 17.131Z" fill="white"/>
<path d="M83.0847 17.0444L79.1649 7.40063H81.508L84.0264 14.1404L86.5447 7.40063H88.8441L84.9461 17.0444H83.0847Z" fill="white"/>
<path d="M92.5886 16.9793V9.35105H89.6542V7.40063H97.6691V9.35105H94.7128V16.9793H92.5886Z" fill="white"/>
<path d="M97.2315 16.9797L101.37 7.33594H103.341L107.48 16.9797H105.268L104.392 14.8342H100.297L99.4214 16.9797H97.2315ZM101.042 12.9705H103.626L102.334 9.87148L101.042 12.9705Z" fill="white"/>
<path d="M107.327 11.7999L107.13 10.9331C108.094 10.8464 108.554 10.3696 108.488 9.58943H107.634V7.40063H109.868V9.24269C109.868 10.1095 109.67 10.7597 109.232 11.1714C108.794 11.5832 108.159 11.7782 107.327 11.7999Z" fill="white"/>
<path d="M111.815 16.9793V7.40063H114.114L116.655 11.4532L119.195 7.40063H121.494V16.9793H119.392V10.738L116.677 14.8122H116.611L113.917 10.7597V16.9577L111.815 16.9793Z" fill="white"/>
<path d="M123.904 16.9793V7.40063H126.029V16.9793H123.904Z" fill="white"/>
<path d="M128.459 16.9793V7.40063H130.43L134.963 13.2952V7.40063H137.043V16.9793H135.225L130.539 10.9114V16.9793H128.459Z" fill="white"/>
<path d="M147.752 15.7008C146.767 16.6544 145.54 17.1311 144.073 17.1311C142.606 17.1311 141.379 16.6544 140.416 15.7008C139.452 14.7473 138.971 13.577 138.971 12.1901C138.971 10.8248 139.452 9.63286 140.438 8.67933C141.423 7.72579 142.65 7.24902 144.117 7.24902C145.584 7.24902 146.81 7.72579 147.774 8.67933C148.737 9.63286 149.219 10.8031 149.219 12.1901C149.219 13.577 148.737 14.7473 147.752 15.7008ZM141.993 14.3139C142.562 14.899 143.241 15.1807 144.073 15.1807C144.905 15.1807 145.628 14.8773 146.153 14.3139C146.701 13.7504 146.986 13.0136 146.986 12.1684C146.986 11.3449 146.701 10.6081 146.153 10.0446C145.584 9.45949 144.905 9.17777 144.073 9.17777C143.241 9.17777 142.518 9.48117 141.993 10.0446C141.445 10.6081 141.161 11.3449 141.161 12.1901C141.161 13.0136 141.423 13.7504 141.993 14.3139Z" fill="white"/>
<path d="M152.942 16.9793V9.35105H149.986V7.40063H158.001V9.35105H155.044V16.9793H152.942Z" fill="white"/>
<path d="M34.2375 28.3406L36.8331 22.8412H37.427L40.0225 28.3406H39.3406L38.6807 26.9078H35.5793L34.8974 28.3406H34.2375ZM35.8432 26.3389H38.4388L37.141 23.5576L35.8432 26.3389ZM42.0902 28.3406V22.8833H42.7281V26.1492L46.0055 22.8833H46.8414L44.3998 25.2643L46.9514 28.3406H46.1375L43.9379 25.7068L42.7281 26.8867V28.3617L42.0902 28.3406ZM50.7567 28.4249C49.8769 28.4249 49.107 28.1299 48.4251 27.561L48.821 27.1185C49.129 27.3924 49.4369 27.582 49.7229 27.7085C50.0308 27.8349 50.3828 27.8981 50.7567 27.8981C51.1307 27.8981 51.4386 27.8138 51.6806 27.6453C51.9225 27.4767 52.0325 27.2449 52.0325 26.9499C52.0325 26.676 51.9225 26.4653 51.7246 26.3178C51.5266 26.1703 51.1307 26.0228 50.5587 25.9175C49.8769 25.77 49.3929 25.5803 49.085 25.3486C48.777 25.1168 48.6451 24.7586 48.6451 24.3372C48.6451 23.9158 48.821 23.5576 49.173 23.2626C49.5249 22.9887 49.9648 22.8412 50.5148 22.8412C51.2626 22.8412 51.9445 23.0729 52.5164 23.5154L52.1425 24C51.6366 23.5997 51.0867 23.4101 50.4928 23.4101C50.1188 23.4101 49.8329 23.4944 49.6129 23.6629C49.3929 23.8315 49.283 24.0422 49.283 24.295C49.283 24.569 49.3929 24.7797 49.5909 24.9272C49.8109 25.0746 50.2068 25.2221 50.8227 25.3486C51.4606 25.475 51.9445 25.6646 52.2305 25.9175C52.5384 26.1492 52.6704 26.4864 52.6704 26.9078C52.6704 27.3713 52.4944 27.7506 52.1205 28.0245C51.7905 28.2774 51.3286 28.4249 50.7567 28.4249ZM55.002 28.3406V22.8833H55.6399V28.3406H55.002ZM60.0392 28.3406V26.1914L57.6636 22.8833H58.4554L60.3691 25.6225L62.3048 22.8833H63.0527L60.677 26.1703V28.3406H60.0392ZM63.6246 28.3406L66.2201 22.8412H66.814L69.4096 28.3406H68.7277L68.0678 26.9078H64.9663L64.2844 28.3406H63.6246ZM65.2083 26.3389H67.8039L66.5061 23.5576L65.2083 26.3389ZM71.4772 28.3406V22.8833H73.4569C74.3368 22.8833 75.0846 23.1362 75.6345 23.6629C76.2064 24.1686 76.4704 24.8218 76.4704 25.6225C76.4704 26.4021 76.1844 27.0553 75.6125 27.582C75.0406 28.1088 74.3148 28.3617 73.4349 28.3617L71.4772 28.3406ZM72.1151 27.7717H73.4569C74.1608 27.7717 74.7327 27.561 75.1726 27.1606C75.6125 26.7603 75.8325 26.2335 75.8325 25.6014C75.8325 24.9904 75.6125 24.4636 75.1726 24.0633C74.7327 23.6629 74.1608 23.4522 73.4569 23.4522H72.1151V27.7717ZM83.5312 27.6031C82.9813 28.151 82.2774 28.4249 81.4416 28.4249C80.6057 28.4249 79.9018 28.151 79.3519 27.6031C78.802 27.0553 78.538 26.381 78.538 25.6014C78.538 24.8218 78.802 24.1686 79.3519 23.6208C79.9018 23.0729 80.6057 22.778 81.4416 22.778C82.2774 22.778 82.9813 23.0519 83.5312 23.5997C84.0811 24.1475 84.3451 24.8218 84.3451 25.6014C84.3451 26.381 84.0591 27.0553 83.5312 27.6031ZM79.8358 27.2028C80.2538 27.6453 80.8037 27.856 81.4416 27.856C82.0795 27.856 82.6294 27.6453 83.0473 27.2028C83.4652 26.7603 83.6852 26.2335 83.6852 25.6014C83.6852 24.9693 83.4652 24.4425 83.0473 24C82.6294 23.5576 82.0795 23.3469 81.4416 23.3469C80.8037 23.3469 80.2538 23.5576 79.8358 24C79.4179 24.4215 79.2199 24.9693 79.2199 25.6014C79.1979 26.2335 79.4179 26.7814 79.8358 27.2028ZM86.6327 28.3406V22.8833H89.0743C89.7782 22.8833 90.3061 23.0729 90.702 23.4311C90.988 23.7051 91.1419 24.0843 91.1419 24.5268C91.1419 24.9693 91.01 25.3064 90.724 25.5803C90.4381 25.8543 90.0641 26.0228 89.6022 26.1071L91.3619 28.3406H90.57L88.9203 26.2125H87.2926V28.3406H86.6327ZM87.2706 25.6646H89.0303C89.4702 25.6646 89.8222 25.5593 90.0861 25.3696C90.3501 25.1589 90.504 24.885 90.504 24.5268C90.504 24.1897 90.3721 23.9368 90.1081 23.7472C89.8442 23.5576 89.4922 23.4522 89.0523 23.4522H87.2926V25.6646H87.2706ZM93.4515 28.3406V22.8833H94.0894V27.7717H97.3009V28.3406H93.4515ZM99.4785 28.3406V22.8833H100.116V28.3406H99.4785ZM102.734 28.3406V22.8833H103.372V26.1492L106.649 22.8833H107.485L105.044 25.2643L107.595 28.3406H106.781L104.582 25.7068L103.372 26.8867V28.3617L102.734 28.3406ZM114.106 28.4249C113.336 28.4249 112.764 28.1088 112.346 27.4556L112.808 27.0764C112.984 27.3503 113.182 27.5399 113.38 27.6663C113.578 27.7928 113.82 27.856 114.106 27.856C114.436 27.856 114.7 27.7506 114.92 27.5188C115.118 27.2871 115.228 26.971 115.228 26.5496V22.8833H115.888V26.5285C115.888 27.1606 115.712 27.6242 115.36 27.9613C115.03 28.2774 114.612 28.4249 114.106 28.4249ZM117.625 28.3406L120.221 22.8412H120.815L123.411 28.3406H122.729L122.069 26.9078H118.967L118.285 28.3406H117.625ZM119.231 26.3389H121.827L120.529 23.5576L119.231 26.3389ZM125.478 28.3406V22.8833H126.138L128.206 25.8543L130.273 22.8833H130.933V28.3406H130.295V23.9158L128.228 26.8446H128.206L126.138 23.9368V28.3406H125.478ZM133.551 28.3406V22.8833H134.189V28.3406H133.551ZM138.566 28.3406V26.1914L136.212 22.8833H137.004L138.918 25.6225L140.854 22.8833H141.601L139.226 26.1703V28.3406H138.566ZM142.173 28.3406L144.769 22.8412H145.363L147.958 28.3406H147.277L146.617 26.9078H143.515L142.833 28.3406H142.173ZM143.757 26.3389H146.353L145.055 23.5576L143.757 26.3389ZM150.796 28.3406V23.4522H148.882V22.8833H153.369V23.4522H151.456V28.3406H150.796ZM155.569 28.3406V22.8833H156.207V28.3406H155.569Z" fill="white"/>
<path d="M27.1043 23.5682C27.1043 30.0367 21.4826 35.9991 13.5494 35.9991C9.46862 35.9991 5.9586 34.396 3.56151 31.9773C2.39151 30.8242 1.47833 29.418 0.879058 27.9556C-0.490707 24.6369 -0.348023 20.7557 1.93492 17.2683L10.2106 4.55614L11.1808 3.06555C11.3235 2.84055 11.6945 2.84055 11.8372 3.06555L12.8074 4.55614L13.635 5.82173L18.5433 13.4153L21.3685 17.7464L22.1675 18.9839C22.3387 19.237 22.4814 19.5183 22.6241 19.7714C23.2804 21.037 23.5943 22.3588 23.5943 23.6525C23.5943 28.068 20.0558 32.1179 14.9477 32.7086C14.7765 32.7367 14.6338 32.7367 14.4626 32.7367C14.3199 32.7367 14.1772 32.7648 14.006 32.7648C13.8633 32.7648 13.7206 32.7648 13.6065 32.7648C13.4638 32.7648 13.1499 32.7648 13.1213 32.7648V30.8524V30.8242L17.8299 23.3713H12.5221V27.9556C12.5221 29.7274 11.5518 31.2742 9.8396 32.1461C9.12618 31.893 8.46984 31.5555 7.84203 31.1617C7.67081 31.0492 7.47105 30.9086 7.29983 30.7961C5.67323 29.6149 4.47469 27.9274 3.93249 26.0712C3.73273 25.3681 3.59005 24.6369 3.56151 23.9057C3.53298 22.2744 3.93249 20.587 4.95981 19.012L10.182 10.9685L11.4662 8.99977V9.78726C11.4662 11.8403 10.8384 13.8653 9.72545 15.6371L6.84324 19.9964C6.18689 21.037 5.81592 22.1057 5.75884 23.1744C5.73031 23.7088 5.75884 24.2431 5.81592 24.7494C6.18689 26.8587 7.61373 28.7712 9.66838 29.8399C10.0108 29.3618 10.2391 28.7712 10.2962 28.1524V21.3182H20.2841V23.3432L15.8323 30.543C19.1711 29.643 21.397 26.7743 21.397 23.6807C21.397 23.1463 21.3399 22.6119 21.1972 22.0494C21.026 21.3463 20.7121 20.6995 20.3126 20.0245L20.1414 19.7433L16.6313 14.4278L13.5779 9.70288L12.2938 7.73418L11.6374 6.72171C11.5803 6.60921 11.4091 6.60921 11.3235 6.72171L3.78981 18.337C2.42004 20.4464 1.96345 22.6963 2.24882 24.89C2.39151 26.015 2.76248 27.1118 3.27615 28.1243C3.78981 29.1086 4.44615 30.0086 5.27372 30.7961C5.38787 30.9086 5.50201 31.0211 5.61616 31.1336C6.30104 31.7242 7.07153 32.2586 7.92764 32.7086C7.98471 32.7367 8.04178 32.7648 8.09886 32.7929C9.09764 33.2992 10.1535 33.6367 11.3235 33.8617C12.0369 33.9742 12.7789 34.0585 13.5494 34.0585H13.5779C20.1984 34.0304 24.907 29.0524 24.907 23.6525C24.907 21.8807 24.3933 20.0807 23.2804 18.337L19.7704 12.8809L13.5494 3.29054L12.2652 1.32184L11.4091 0C12.9786 0 14.4626 0.759356 15.2901 2.02495L21.6824 11.8122L25.2209 17.2402C26.5336 19.2933 27.1043 21.487 27.1043 23.5682Z" fill="white"/>
</svg>
