<svg width="11" height="4" viewBox="0 0 11 4" fill="none" xmlns="http://www.w3.org/2000/svg">
<path opacity="0.5" d="M1.904 0.648C2.26667 0.648 2.576 0.776 2.832 1.032C3.088 1.27733 3.216 1.58133 3.216 1.944C3.216 2.296 3.088 2.6 2.832 2.856C2.576 3.112 2.26667 3.24 1.904 3.24C1.552 3.24 1.248 3.112 0.992 2.856C0.746667 2.6 0.624 2.296 0.624 1.944C0.624 1.58133 0.746667 1.27733 0.992 1.032C1.23733 0.776 1.54133 0.648 1.904 0.648ZM5.74775 0.648C6.11042 0.648 6.41975 0.776 6.67575 1.032C6.93175 1.27733 7.05975 1.58133 7.05975 1.944C7.05975 2.296 6.93175 2.6 6.67575 2.856C6.41975 3.112 6.11042 3.24 5.74775 3.24C5.39575 3.24 5.09175 3.112 4.83575 2.856C4.59042 2.6 4.46775 2.296 4.46775 1.944C4.46775 1.58133 4.59042 1.27733 4.83575 1.032C5.08108 0.776 5.38508 0.648 5.74775 0.648ZM9.5915 0.648C9.95417 0.648 10.2635 0.776 10.5195 1.032C10.7755 1.27733 10.9035 1.58133 10.9035 1.944C10.9035 2.296 10.7755 2.6 10.5195 2.856C10.2635 3.112 9.95417 3.24 9.5915 3.24C9.2395 3.24 8.9355 3.112 8.6795 2.856C8.43417 2.6 8.3115 2.296 8.3115 1.944C8.3115 1.58133 8.43417 1.27733 8.6795 1.032C8.92483 0.776 9.22883 0.648 9.5915 0.648Z" fill="#626469"/>
</svg>
