<svg width="16" height="16" viewBox="0 0 16 16" fill="none" xmlns="http://www.w3.org/2000/svg">
<path d="M7.91249 13.9911C8.05027 13.8045 8.12473 13.5796 8.12473 13.3432C8.12473 12.7402 7.63411 12.2495 7.03101 12.2495H1.71869C1.42641 12.2495 1.15175 12.3633 0.945283 12.5698C0.73872 12.7763 0.62497 13.051 0.62497 13.3432C0.62497 13.5854 0.70422 13.8093 0.837939 13.9907C0.340344 14.2524 0 14.7742 0 15.3744V15.6869C0 15.8595 0.139938 15.9994 0.312501 15.9994H8.4372C8.60977 15.9994 8.74971 15.8595 8.74971 15.6869V15.3744C8.74971 14.7745 8.40971 14.2529 7.91249 13.9911ZM1.38719 13.0117C1.47566 12.9232 1.59341 12.8745 1.71869 12.8745H7.03101C7.28948 12.8745 7.49973 13.0847 7.49973 13.3432C7.49973 13.4685 7.45098 13.5862 7.36248 13.6747C7.27401 13.7632 7.15626 13.8119 7.03098 13.8119H1.71869C1.46022 13.8119 1.24997 13.6016 1.24997 13.3432C1.24997 13.2179 1.29869 13.1002 1.38719 13.0117ZM0.62497 15.3744C0.62497 14.8575 1.04553 14.4369 1.56244 14.4369H1.71869H7.03101H7.18726C7.70417 14.4369 8.12473 14.8575 8.12473 15.3744H0.62497Z" fill="white" fill-opacity="0.55"/>
<path d="M15.7085 13.1289C15.6024 12.9644 15.4758 12.819 15.3321 12.6966L13.8719 11.4231C13.8606 11.4059 13.8474 11.3897 13.8323 11.3746C13.8069 11.3492 13.7782 11.3295 13.7476 11.3146L12.8646 10.5445L8.77738 6.97914C8.94469 6.80423 9.03682 6.57551 9.03682 6.33229C9.03682 6.08173 8.93929 5.84626 8.762 5.66901C8.68469 5.59179 8.59682 5.53107 8.50291 5.4866L8.88104 5.10848C8.98672 5.13657 9.09532 5.15095 9.20401 5.15095C9.52404 5.15092 9.8441 5.0291 10.0877 4.78548C10.3239 4.54932 10.454 4.23541 10.454 3.90157C10.454 3.56773 10.3239 3.25382 10.0878 3.01766L7.43625 0.366219C7.2001 0.130063 6.88616 0 6.55222 0C6.21844 0 5.9046 0.130063 5.66847 0.366219C5.3421 0.692595 5.23466 1.156 5.34547 1.57294L1.57281 5.34557C1.46856 5.31785 1.36009 5.30323 1.24928 5.30323C0.915282 5.30323 0.6015 5.4332 0.365531 5.66914C-0.121844 6.15651 -0.121844 6.94955 0.365531 7.43695L3.017 10.0885C3.26072 10.3321 3.58081 10.454 3.90091 10.454C4.22103 10.454 4.54113 10.3321 4.78485 10.0885C5.11122 9.76205 5.21866 9.29867 5.10785 8.88174L5.48519 8.50436C5.53053 8.59905 5.59207 8.68642 5.6685 8.76283C5.84557 8.93989 6.08097 9.03742 6.33147 9.03742C6.57444 9.03742 6.80307 8.94546 6.97822 8.77833L11.3315 13.78C11.3435 13.7988 11.3575 13.8166 11.3739 13.833C11.3795 13.8386 11.3854 13.8437 11.3914 13.8487L12.6886 15.3392C12.7208 15.3772 12.7553 15.4147 12.7911 15.4505C13.1474 15.8066 13.6179 15.9999 14.112 15.9999C14.1991 15.9999 14.287 15.9939 14.375 15.9817C14.9634 15.9003 15.472 15.5483 15.7702 15.0158C16.0968 14.4323 16.0725 13.6915 15.7085 13.1289ZM6.11044 0.808158C6.22853 0.690064 6.38547 0.625001 6.55225 0.625001C6.71925 0.625001 6.87629 0.690064 6.99435 0.808158L9.64585 3.45963C9.76394 3.57773 9.82897 3.73469 9.82897 3.9016C9.82897 4.06851 9.76394 4.22548 9.64582 4.34357C9.40222 4.58723 9.00579 4.58723 8.76219 4.34357L6.1106 1.69197C6.11054 1.69191 6.1105 1.69188 6.11044 1.69182C5.86678 1.44819 5.86678 1.05178 6.11044 0.808158ZM4.34291 9.64652C4.09922 9.89021 3.70263 9.89024 3.45894 9.64652L0.807469 6.99505C0.56375 6.75133 0.56375 6.35483 0.807469 6.11107C0.925344 5.99317 1.08228 5.92823 1.24928 5.92823C1.41625 5.92823 1.57309 5.99314 1.69094 6.11095L4.34288 8.76289C4.58657 9.00649 4.58657 9.40292 4.34291 9.64652ZM5.6586 7.44714L4.78482 8.32095L2.13306 5.6692L5.66847 2.13372L8.32019 4.78548L7.44482 5.66089C7.44197 5.66357 7.43919 5.6662 7.43619 5.66917L5.66938 7.43602C5.66572 7.43961 5.66219 7.44336 5.6586 7.44714ZM6.77441 8.09905C6.77379 8.09967 6.77319 8.10027 6.77257 8.10089L6.5525 8.32095C6.49347 8.37995 6.415 8.41245 6.33144 8.41245C6.24791 8.41245 6.16941 8.37995 6.11041 8.32092C6.05132 8.26186 6.01878 8.1833 6.01878 8.0997C6.01878 8.01789 6.05 7.94092 6.10666 7.88286L7.88169 6.10782C8.00335 5.98951 8.20004 5.99098 8.32026 6.11107C8.37932 6.17014 8.41185 6.2487 8.41185 6.33229C8.41185 6.41583 8.37941 6.49417 8.32022 6.5532L8.10144 6.77198C8.09994 6.77345 8.09844 6.77495 8.09697 6.77645L6.77441 8.09905ZM7.42154 8.33577L8.33485 7.42245L12.2018 10.7954L10.7907 12.2065L7.42154 8.33577ZM11.202 12.6791L12.6739 11.2072L13.1459 11.619L11.6133 13.1517L11.202 12.6791ZM15.2249 14.7105C15.0232 15.0706 14.6822 15.3083 14.2894 15.3627C13.8974 15.4169 13.5124 15.2878 13.2329 15.0085C13.2089 14.9845 13.1859 14.9595 13.1644 14.9341C13.1634 14.9329 13.1624 14.9317 13.1614 14.9306L12.0245 13.6242L13.618 12.0307L14.9227 13.1688C14.9237 13.1697 14.9247 13.1705 14.9257 13.1714C15.0234 13.2544 15.11 13.3541 15.1835 13.4681C15.4199 13.8332 15.4364 14.3326 15.2249 14.7105Z" fill="white" fill-opacity="0.55"/>
</svg>
