<svg width="24" height="24" viewBox="0 0 24 24" fill="none" xmlns="http://www.w3.org/2000/svg">
<path d="M4.0022 5.28928C4.0022 4.62161 4.5929 3.98766 5.27096 4.00063C7.32415 4.00496 9.37734 3.99371 11.4305 4.00582C12.1665 4.0828 12.6681 4.84907 12.5791 5.56172C10.8372 5.56258 9.09452 5.55739 7.35269 5.56258C6.83809 5.54528 6.38404 5.81945 6.00869 6.14463C5.77344 6.32972 5.52696 6.52518 5.40415 6.80712C5.15766 7.27242 5.22425 7.81296 5.21907 8.31891C5.21993 9.72604 5.22598 11.134 5.21561 12.5412C4.5808 12.4573 4.02036 11.915 4.00307 11.2603C3.99788 9.27026 4.00047 7.27934 4.0022 5.28928Z" fill="white" fill-opacity="0.25"/>
<path d="M6.0087 6.1447C6.38405 5.81951 6.83811 5.54535 7.3527 5.56264C9.09454 5.55745 10.8372 5.56264 12.5791 5.56178C12.5756 5.69324 12.5722 5.8247 12.5678 5.95616C10.9142 5.95183 9.26146 5.96048 7.60784 5.95183C7.30514 5.95183 6.98773 5.9674 6.71703 6.11962C6.26297 6.35659 5.96805 6.85389 5.97065 7.36502C5.96114 9.0887 5.9793 10.8115 5.97757 12.5352C5.84178 12.5352 5.706 12.5343 5.56935 12.5343C5.57454 10.8115 5.56762 9.08956 5.57195 7.36761C5.56157 6.91962 5.76049 6.50448 6.0087 6.1447Z" fill="white" fill-opacity="0.25"/>
<path d="M7.85778 8.38898C8.19075 7.81557 8.86275 7.52065 9.50967 7.52844C11.3051 7.52411 13.0997 7.5293 14.8943 7.52671C14.8891 7.66163 14.8839 7.79568 14.8805 7.9306C13.0919 7.93233 11.3043 7.93233 9.51572 7.93146C9.01151 7.91849 8.47529 8.12779 8.21151 8.57752C7.82751 9.20109 7.94253 9.96476 7.92524 10.661C7.94426 12.0378 7.88545 13.4182 7.95551 14.7942L7.93648 14.8236C7.79897 14.8512 7.65713 14.8573 7.51702 14.8694C7.54729 13.5237 7.5127 12.178 7.53518 10.8331C7.56199 10.0167 7.40459 9.12238 7.85778 8.38898Z" fill="white" fill-opacity="0.25"/>
<path d="M6.71703 6.11962C6.98773 5.9674 7.30513 5.95183 7.60784 5.95183C9.26146 5.96048 10.9142 5.95183 12.5678 5.95616C13.1265 5.97864 13.7458 5.84718 14.2405 6.18275C14.698 6.46124 14.9194 7.00437 14.8943 7.52675C13.0997 7.52935 11.3051 7.52416 9.50967 7.52848C8.86276 7.5207 8.19076 7.81562 7.85778 8.38902C7.40459 9.12243 7.562 10.0167 7.53519 10.8331C7.5127 12.178 7.5473 13.5237 7.51703 14.8695C7.00935 14.8798 6.48438 14.6653 6.20589 14.226C5.85908 13.7322 5.98362 13.0991 5.97757 12.5352C5.9793 10.8115 5.96113 9.0887 5.97065 7.36502C5.96805 6.85389 6.26297 6.35659 6.71703 6.11962Z" fill="white" fill-opacity="0.38"/>
<path d="M5.40417 6.80726C5.52698 6.52532 5.77346 6.32986 6.00871 6.14478C5.76049 6.50456 5.56157 6.91969 5.57195 7.36769C5.56762 9.08964 5.57454 10.8116 5.56935 12.5344C5.45173 12.5361 5.33325 12.5387 5.21562 12.5413C5.226 11.1342 5.21995 9.72618 5.21908 8.31905C5.22427 7.8131 5.15768 7.27256 5.40417 6.80726Z" fill="white" fill-opacity="0.17"/>
<path d="M8.21151 8.57758C8.47529 8.12785 9.01151 7.91856 9.51572 7.93153C11.3043 7.93239 13.0919 7.93239 14.8805 7.93066C15.8016 7.93412 16.7226 7.9298 17.6437 7.93153C18.4446 7.92115 19.2135 8.62083 19.1979 9.43639C19.1962 12.0604 19.1962 14.6844 19.1979 17.3084C19.1918 17.599 19.2299 17.9051 19.114 18.1802C18.8857 18.77 18.2863 19.2007 17.6489 19.1964C14.9376 19.1981 12.2253 19.1973 9.51399 19.1964C8.89475 19.2059 8.30578 18.8046 8.06102 18.2407C7.88545 17.8723 7.93215 17.4546 7.92696 17.0593C7.93561 16.3147 7.91399 15.5683 7.93648 14.8236L7.95551 14.7942C7.88545 13.4182 7.94426 12.0379 7.92524 10.661C7.94253 9.96483 7.82751 9.20115 8.21151 8.57758ZM12.5877 14.4197C12.3404 14.7216 12.1691 15.0822 11.8846 15.3538C11.6087 14.8703 11.4141 14.2779 10.9038 13.9864C10.6461 13.9856 10.4316 14.1689 10.2457 14.3281C10.0909 14.4846 9.90232 14.6602 9.89021 14.8928C10.1453 15.3149 10.5103 15.666 10.7162 16.1209C10.6954 16.6165 11.0768 17.1294 11.5827 17.189C11.9036 17.2349 12.3092 17.2496 12.5246 16.959C13.1127 16.197 13.5313 15.3201 14.0969 14.5417C14.7015 13.7157 15.3717 12.9391 16.0731 12.1944C16.4537 11.8355 16.6258 11.3166 17.021 10.9689C16.9977 10.9456 16.9501 10.8971 16.9267 10.8738C17.1101 10.6853 17.3133 10.5157 17.4811 10.3134C17.5771 10.1516 17.6083 9.96137 17.6662 9.78407C15.722 11.0191 13.994 12.5957 12.5877 14.4197Z" fill="white" fill-opacity="0.45"/>
<path d="M13.552 15.0416C14.4835 13.5082 15.6433 12.1244 16.9268 10.8738C16.9501 10.8971 16.9977 10.9456 17.021 10.9689C16.6258 11.3166 16.4537 11.8355 16.0731 12.1944C15.3717 12.9391 14.7015 13.7157 14.0969 14.5417C13.5313 15.3201 13.1127 16.197 12.5246 16.959C12.3092 17.2496 11.9036 17.2349 11.5828 17.189C11.0768 17.1293 10.6954 16.6165 10.7162 16.1209C10.9246 16.453 11.0535 16.9633 11.511 17.0186C11.8232 17.0394 12.2418 17.1069 12.4433 16.7998C12.8679 16.2498 13.1836 15.6279 13.552 15.0416Z" fill="white" fill-opacity="0.45"/>
</svg>
