<svg width="24" height="24" viewBox="0 0 24 24" fill="none" xmlns="http://www.w3.org/2000/svg">
<path d="M11.8616 20.6542H10.4824C9.79793 20.6542 9.2411 20.0974 9.2411 19.4129V10.8616C9.2411 10.1772 9.79793 9.62033 10.4824 9.62033H11.8616C12.5461 9.62033 13.103 10.1772 13.103 10.8616V19.4129C13.103 20.0974 12.5461 20.6542 11.8616 20.6542ZM10.4824 10.7237C10.4063 10.7237 10.3445 10.7856 10.3445 10.8616V19.4129C10.3445 19.489 10.4063 19.5508 10.4824 19.5508H11.8616C11.9377 19.5508 11.9996 19.489 11.9996 19.4129V10.8616C11.9996 10.7856 11.9377 10.7237 11.8616 10.7237H10.4824Z" fill="white" fill-opacity="0.55"/>
<path d="M6.62055 20.6542H5.24131C4.55683 20.6542 4 20.0974 4 19.4129V13.6201C4 12.9356 4.55683 12.3788 5.24131 12.3788H6.62055C7.30503 12.3788 7.86187 12.9356 7.86187 13.6201V19.4129C7.86187 20.0974 7.305 20.6542 6.62055 20.6542ZM5.24131 13.4822C5.16525 13.4822 5.10339 13.5441 5.10339 13.6201V19.4129C5.10339 19.489 5.16525 19.5508 5.24131 19.5508H6.62055C6.69662 19.5508 6.75848 19.489 6.75848 19.4129V13.6201C6.75848 13.5441 6.69662 13.4822 6.62055 13.4822H5.24131Z" fill="white" fill-opacity="0.55"/>
<path d="M17.1027 20.6542H15.7235C15.039 20.6542 14.4822 20.0974 14.4822 19.4129V7.96525H13.7243C13.37 7.96525 13.0579 7.76526 12.9098 7.44335C12.7617 7.12144 12.813 6.75435 13.0436 6.4853C13.0462 6.48223 13.0489 6.47916 13.0516 6.47616L16.0023 3.18351C16.1069 3.06672 16.2563 3 16.4131 3C16.5699 3 16.7193 3.06672 16.824 3.18351L19.7746 6.47616C19.7774 6.47916 19.78 6.48223 19.7826 6.4853C20.0132 6.75432 20.0645 7.12144 19.9165 7.44335C19.7684 7.76526 19.4563 7.96525 19.1019 7.96525H18.3441V19.4129C18.3441 20.0974 17.7872 20.6542 17.1027 20.6542ZM14.1876 6.86186H15.0339C15.3386 6.86186 15.5856 7.10888 15.5856 7.41356V19.4129C15.5856 19.489 15.6474 19.5508 15.7235 19.5508H17.1027C17.1788 19.5508 17.2407 19.489 17.2407 19.4129V7.41356C17.2407 7.10888 17.4877 6.86186 17.7924 6.86186H18.6387L16.4131 4.37837L14.1876 6.86186Z" fill="white" fill-opacity="0.55"/>
</svg>
