<svg width="24" height="24" viewBox="0 0 24 24" fill="none" xmlns="http://www.w3.org/2000/svg">
<rect opacity="0.2" width="24" height="24" rx="6" fill="white"/>
<g clip-path="url(#clip0)">
<path d="M16.767 9.5565C17.255 9.21 17.6655 8.7775 18 8.2795V8.279C17.5535 8.4745 17.0785 8.6045 16.5825 8.6675C17.0925 8.363 17.482 7.8845 17.665 7.308C17.1895 7.5915 16.6645 7.7915 16.105 7.9035C15.6535 7.4225 15.01 7.125 14.308 7.125C12.946 7.125 11.8495 8.2305 11.8495 9.5855C11.8495 9.7805 11.866 9.968 11.9065 10.1465C9.8615 10.0465 8.0515 9.0665 6.8355 7.573C6.6235 7.9415 6.4985 8.363 6.4985 8.8165C6.4985 9.6685 6.937 10.4235 7.5915 10.861C7.196 10.8535 6.8085 10.7385 6.48 10.558V10.585C6.48 11.7805 7.3325 12.7735 8.451 13.0025C8.2505 13.0575 8.0325 13.0835 7.806 13.0835C7.6485 13.0835 7.4895 13.0745 7.3405 13.0415C7.659 14.0155 8.564 14.732 9.639 14.7555C8.802 15.41 7.739 15.8045 6.5885 15.8045C6.387 15.8045 6.1935 15.7955 6 15.771C7.09 16.4735 8.381 16.875 9.774 16.875C14.1155 16.875 16.945 13.253 16.767 9.5565Z" fill="white"/>
</g>
<defs>
<clipPath id="clip0">
<rect width="12" height="12" fill="white" transform="translate(6 6)"/>
</clipPath>
</defs>
</svg>
