<svg width="68" height="24" viewBox="0 0 68 24" fill="none" xmlns="http://www.w3.org/2000/svg">
<path d="M24 9.41932V5.03224C24 4.60465 23.6533 4.25806 23.2258 4.25806H0.774172L0.359375 5.03224V9.41932L1.16112 10.4516H22.8387L24 9.41932Z" fill="#3DB4EA"/>
<path d="M0 5.03224V9.41932L0.774188 10.1076V4.25806C0.346641 4.25806 0 4.60465 0 5.03224Z" fill="#37A3D4"/>
<path d="M0.366455 14.5806V18.632C0.366455 19.0596 0.713096 19.4062 1.14064 19.4062H23.2258L24 18.9677V14.5806L22.8389 13.5483H1.16131L0.366455 14.5806Z" fill="#259245"/>
<path d="M0.774188 16.645V13.8923L0 14.5805V18.9676C0 19.3952 0.346641 19.7418 0.774188 19.7418H23.2258C23.6534 19.7418 24 19.3952 24 18.9676H3.0968C1.81406 18.9676 0.774188 17.9278 0.774188 16.645Z" fill="#1F7A3A"/>
<path d="M0.40625 13.922L0.774172 14.5807H24V9.41943H0.774172L0.40625 10.2344V13.922Z" fill="#F2F2F6"/>
<path d="M0 9.41943H0.774188V14.5807H0V9.41943Z" fill="#E4E4E8"/>
<path d="M2.53712 6.72022C2.53712 6.03089 3.02157 5.45504 3.66852 5.31377C3.56911 5.29203 3.46593 5.28027 3.35995 5.28027C2.56469 5.28027 1.91998 5.92495 1.91998 6.72025C1.91998 7.51554 2.56463 8.16022 3.35995 8.16022C3.46593 8.16022 3.56908 8.14843 3.66852 8.12672C3.0216 7.98539 2.53712 7.40954 2.53712 6.72022Z" fill="#F0F0F0"/>
<path d="M4.51965 7.37451L4.61711 7.67451H4.93254L4.67736 7.85995L4.77483 8.15995L4.51965 7.97454L4.26441 8.15995L4.3619 7.85995L4.10669 7.67451H4.42213L4.51965 7.37451Z" fill="#F0F0F0"/>
<path d="M5.52642 7.37451L5.62391 7.67451H5.93935L5.68414 7.85995L5.78163 8.15995L5.52642 7.97454L5.27122 8.15995L5.3687 7.85995L5.11353 7.67451H5.42893L5.52642 7.37451Z" fill="#F0F0F0"/>
<path d="M6.53326 7.37451L6.63072 7.67451H6.94618L6.69098 7.85995L6.78844 8.15995L6.53326 7.97454L6.27802 8.15995L6.37554 7.85995L6.1203 7.67451H6.43577L6.53326 7.37451Z" fill="#F0F0F0"/>
<path d="M7.54009 7.37451L7.63758 7.67451H7.95299L7.69781 7.85995L7.7953 8.15995L7.54009 7.97454L7.28486 8.15995L7.38237 7.85995L7.12714 7.67451H7.44257L7.54009 7.37451Z" fill="#F0F0F0"/>
<path d="M8.54687 7.37451L8.64436 7.67451H8.9598L8.70462 7.85995L8.80211 8.15995L8.54687 7.97454L8.29166 8.15995L8.38915 7.85995L8.13397 7.67451H8.44938L8.54687 7.37451Z" fill="#F0F0F0"/>
<path d="M5.52642 6.32739L5.62391 6.62736H5.93935L5.68414 6.81283L5.78163 7.1128L5.52642 6.92739L5.27122 7.1128L5.3687 6.81283L5.11353 6.62736H5.42893L5.52642 6.32739Z" fill="#F0F0F0"/>
<path d="M6.53326 6.32739L6.63072 6.62736H6.94618L6.69098 6.81283L6.78844 7.1128L6.53326 6.92739L6.27802 7.1128L6.37554 6.81283L6.1203 6.62736H6.43577L6.53326 6.32739Z" fill="#F0F0F0"/>
<path d="M7.54009 6.32739L7.63758 6.62736H7.95299L7.69781 6.81283L7.7953 7.1128L7.54009 6.92739L7.28486 7.1128L7.38237 6.81283L7.12714 6.62736H7.44257L7.54009 6.32739Z" fill="#F0F0F0"/>
<path d="M8.54687 6.32739L8.64436 6.62736H8.9598L8.70462 6.81283L8.80211 7.1128L8.54687 6.92739L8.29166 7.1128L8.38915 6.81283L8.13397 6.62736H8.44938L8.54687 6.32739Z" fill="#F0F0F0"/>
<path d="M6.53326 5.28003L6.63072 5.58006H6.94618L6.69098 5.76546L6.78844 6.06549L6.53326 5.88009L6.27802 6.06549L6.37554 5.76546L6.1203 5.58006H6.43577L6.53326 5.28003Z" fill="#F0F0F0"/>
<path d="M7.54009 5.28003L7.63758 5.58006H7.95299L7.69781 5.76546L7.7953 6.06549L7.54009 5.88009L7.28486 6.06549L7.38237 5.76546L7.12714 5.58006H7.44257L7.54009 5.28003Z" fill="#F0F0F0"/>
<path d="M8.54687 5.28003L8.64436 5.58006H8.9598L8.70462 5.76546L8.80211 6.06549L8.54687 5.88009L8.29166 6.06549L8.38915 5.76546L8.13397 5.58006H8.44938L8.54687 5.28003Z" fill="#F0F0F0"/>
<rect y="9.40796" width="24" height="0.48" fill="#E5646E"/>
<rect y="9.40796" width="0.7728" height="0.48" fill="#DB4655"/>
<rect y="14.1121" width="24" height="0.48" fill="#E5646E"/>
<rect y="14.1121" width="0.7728" height="0.48" fill="#DB4655"/>
<path d="M38.19 13.336C38.19 13.9893 38.05 14.5727 37.77 15.086C37.4993 15.59 37.0887 15.9867 36.538 16.276C35.9967 16.5653 35.3433 16.71 34.578 16.71C33.4207 16.71 32.534 16.4067 31.918 15.8C31.302 15.184 30.994 14.3627 30.994 13.336V6.826H32.842V13.238C32.842 13.9193 32.982 14.428 33.262 14.764C33.5513 15.1 33.99 15.268 34.578 15.268C35.1753 15.268 35.614 15.1 35.894 14.764C36.1833 14.428 36.328 13.9193 36.328 13.238V6.826H38.19V13.336ZM45.9948 6.826V8.254L41.5288 14.988H46.0368L45.8408 16.5H39.3728V15.086L43.9228 8.296H39.8348V6.826H45.9948ZM52.4093 11.376C53.072 11.4973 53.604 11.7353 54.0053 12.09C54.416 12.4447 54.6213 12.986 54.6213 13.714C54.6213 14.722 54.2666 15.4407 53.5573 15.87C52.848 16.29 51.854 16.5 50.5753 16.5H47.6633V6.826H50.1973C52.8666 6.826 54.2013 7.64733 54.2013 9.29C54.2013 9.85933 54.0286 10.326 53.6833 10.69C53.338 11.0447 52.9133 11.2733 52.4093 11.376ZM49.5113 8.184V10.802H50.6453C51.1586 10.802 51.5646 10.69 51.8633 10.466C52.162 10.2327 52.3113 9.892 52.3113 9.444C52.3113 8.97733 52.1526 8.65067 51.8353 8.464C51.5273 8.27733 51.042 8.184 50.3793 8.184H49.5113ZM50.5893 15.114C51.2706 15.114 51.7886 15.0113 52.1433 14.806C52.5073 14.6007 52.6893 14.2133 52.6893 13.644C52.6893 13.0933 52.5166 12.6967 52.1713 12.454C51.8353 12.2113 51.3733 12.09 50.7853 12.09H49.5113V15.114H50.5893Z" fill="white"/>
<path opacity="0.8" d="M65.3271 13.939C65.0154 14.0635 64.6263 13.9912 64.4351 13.779L64.4103 13.7493L62.0845 10.7219C62.0291 10.6498 62 10.5687 62 10.4863C62 10.2289 62.2773 10.0182 62.6283 10.0011L62.6745 10L67.3254 10C67.4397 10 67.5521 10.0209 67.6521 10.0609C67.9638 10.1853 68.0853 10.4615 67.9373 10.6908L67.9155 10.7218L65.5903 13.7492C65.529 13.829 65.4378 13.8948 65.3271 13.939Z" fill="white"/>
</svg>
