<svg width="24" height="24" viewBox="0 0 24 24" fill="none" xmlns="http://www.w3.org/2000/svg">
<path d="M9.6 2.00043C9.53865 2.00043 9.47749 2.01441 9.42109 2.04261L8.8 2.35355L8.17891 2.04261C8.05451 1.98101 7.90784 1.98698 7.78984 2.06058C7.67224 2.13338 7.6 2.26163 7.6 2.40043V5.60043H7.2C6.5384 5.60043 6 6.13883 6 6.80043V20.0004C6 20.662 6.5384 21.2004 7.2 21.2004H16.8C17.4616 21.2004 18 20.662 18 20.0004V6.80043C18 6.13883 17.4616 5.60043 16.8 5.60043H16.4V2.40043C16.4 2.26163 16.3282 2.133 16.2102 2.0598C16.0922 1.9862 15.9451 1.98061 15.8211 2.04261L15.2 2.35355L14.5789 2.04261C14.4665 1.98621 14.3339 1.98621 14.2211 2.04261L13.6 2.35355L12.9789 2.04261C12.8665 1.98621 12.7339 1.98621 12.6211 2.04261L12 2.35355L11.3789 2.04261C11.2665 1.98621 11.1339 1.98621 11.0211 2.04261L10.4 2.35355L9.77891 2.04261C9.72271 2.01441 9.66135 2.00043 9.6 2.00043ZM9.6 2.8473L10.2211 3.15824C10.3335 3.21464 10.4661 3.21464 10.5789 3.15824L11.2 2.8473L11.8211 3.15824C11.9335 3.21464 12.0661 3.21464 12.1789 3.15824L12.8 2.8473L13.4211 3.15824C13.5335 3.21464 13.6661 3.21464 13.7789 3.15824L14.4 2.8473L15.0211 3.15824C15.1335 3.21464 15.2661 3.21464 15.3789 3.15824L15.6 3.0473V8.00043H8.4V3.0473L8.62109 3.15824C8.73349 3.21464 8.86611 3.21464 8.97891 3.15824L9.6 2.8473ZM9.6 4.40043C9.547 4.39968 9.49437 4.40947 9.44518 4.42924C9.396 4.449 9.35123 4.47835 9.31348 4.51556C9.27573 4.55278 9.24576 4.59713 9.2253 4.64603C9.20484 4.69494 9.1943 4.74742 9.1943 4.80043C9.1943 4.85344 9.20484 4.90592 9.2253 4.95482C9.24576 5.00372 9.27573 5.04807 9.31348 5.08529C9.35123 5.12251 9.396 5.15185 9.44518 5.17162C9.49437 5.19138 9.547 5.20118 9.6 5.20043H11.6C11.653 5.20118 11.7056 5.19138 11.7548 5.17162C11.804 5.15185 11.8488 5.12251 11.8865 5.08529C11.9243 5.04807 11.9542 5.00372 11.9747 4.95482C11.9952 4.90592 12.0057 4.85344 12.0057 4.80043C12.0057 4.74742 11.9952 4.69494 11.9747 4.64603C11.9542 4.59713 11.9243 4.55278 11.8865 4.51556C11.8488 4.47835 11.804 4.449 11.7548 4.42924C11.7056 4.40947 11.653 4.39968 11.6 4.40043H9.6ZM13.6 4.40043C13.547 4.39968 13.4944 4.40947 13.4452 4.42924C13.396 4.449 13.3512 4.47835 13.3135 4.51556C13.2757 4.55278 13.2458 4.59713 13.2253 4.64603C13.2048 4.69494 13.1943 4.74742 13.1943 4.80043C13.1943 4.85344 13.2048 4.90592 13.2253 4.95482C13.2458 5.00372 13.2757 5.04807 13.3135 5.08529C13.3512 5.12251 13.396 5.15185 13.4452 5.17162C13.4944 5.19138 13.547 5.20118 13.6 5.20043H14.4C14.453 5.20118 14.5056 5.19138 14.5548 5.17162C14.604 5.15185 14.6488 5.12251 14.6865 5.08529C14.7243 5.04807 14.7542 5.00372 14.7747 4.95482C14.7952 4.90592 14.8057 4.85344 14.8057 4.80043C14.8057 4.74742 14.7952 4.69494 14.7747 4.64603C14.7542 4.59713 14.7243 4.55278 14.6865 4.51556C14.6488 4.47835 14.604 4.449 14.5548 4.42924C14.5056 4.40947 14.453 4.39968 14.4 4.40043H13.6ZM9.6 6.00043C9.547 5.99968 9.49437 6.00947 9.44518 6.02924C9.396 6.049 9.35123 6.07835 9.31348 6.11556C9.27573 6.15278 9.24576 6.19713 9.2253 6.24603C9.20484 6.29494 9.1943 6.34742 9.1943 6.40043C9.1943 6.45344 9.20484 6.50592 9.2253 6.55482C9.24576 6.60372 9.27573 6.64807 9.31348 6.68529C9.35123 6.72251 9.396 6.75185 9.44518 6.77162C9.49437 6.79138 9.547 6.80118 9.6 6.80043H11.6C11.653 6.80118 11.7056 6.79138 11.7548 6.77162C11.804 6.75185 11.8488 6.72251 11.8865 6.68529C11.9243 6.64807 11.9542 6.60372 11.9747 6.55482C11.9952 6.50592 12.0057 6.45344 12.0057 6.40043C12.0057 6.34742 11.9952 6.29494 11.9747 6.24603C11.9542 6.19713 11.9243 6.15278 11.8865 6.11556C11.8488 6.07835 11.804 6.049 11.7548 6.02924C11.7056 6.00947 11.653 5.99968 11.6 6.00043H9.6ZM13.6 6.00043C13.547 5.99968 13.4944 6.00947 13.4452 6.02924C13.396 6.049 13.3512 6.07835 13.3135 6.11556C13.2757 6.15278 13.2458 6.19713 13.2253 6.24603C13.2048 6.29494 13.1943 6.34742 13.1943 6.40043C13.1943 6.45344 13.2048 6.50592 13.2253 6.55482C13.2458 6.60372 13.2757 6.64807 13.3135 6.68529C13.3512 6.72251 13.396 6.75185 13.4452 6.77162C13.4944 6.79138 13.547 6.80118 13.6 6.80043H14.4C14.453 6.80118 14.5056 6.79138 14.5548 6.77162C14.604 6.75185 14.6488 6.72251 14.6865 6.68529C14.7243 6.64807 14.7542 6.60372 14.7747 6.55482C14.7952 6.50592 14.8057 6.45344 14.8057 6.40043C14.8057 6.34742 14.7952 6.29494 14.7747 6.24603C14.7542 6.19713 14.7243 6.15278 14.6865 6.11556C14.6488 6.07835 14.604 6.049 14.5548 6.02924C14.5056 6.00947 14.453 5.99968 14.4 6.00043H13.6ZM8.12031 9.20043H15.8797C16.1597 9.20043 16.4 9.44074 16.4 9.72074V12.6801C16.4 12.9601 16.1597 13.2004 15.8797 13.2004H8.12031C7.84031 13.2004 7.6 12.9601 7.6 12.6801V9.72074C7.6 9.44074 7.84031 9.20043 8.12031 9.20043ZM8 14.4004H9.6C9.8208 14.4004 10 14.5796 10 14.8004V15.2004C10 15.4212 9.8208 15.6004 9.6 15.6004H8C7.7792 15.6004 7.6 15.4212 7.6 15.2004V14.8004C7.6 14.5796 7.7792 14.4004 8 14.4004ZM11.2 14.4004H12.8C13.0208 14.4004 13.2 14.5796 13.2 14.8004V15.2004C13.2 15.4212 13.0208 15.6004 12.8 15.6004H11.2C10.9792 15.6004 10.8 15.4212 10.8 15.2004V14.8004C10.8 14.5796 10.9792 14.4004 11.2 14.4004ZM14.4 14.4004H16C16.2208 14.4004 16.4 14.5796 16.4 14.8004V15.2004C16.4 15.4212 16.2208 15.6004 16 15.6004H14.4C14.1792 15.6004 14 15.4212 14 15.2004V14.8004C14 14.5796 14.1792 14.4004 14.4 14.4004ZM8 16.4004H9.6C9.8208 16.4004 10 16.5796 10 16.8004V17.2004C10 17.4212 9.8208 17.6004 9.6 17.6004H8C7.7792 17.6004 7.6 17.4212 7.6 17.2004V16.8004C7.6 16.5796 7.7792 16.4004 8 16.4004ZM11.2 16.4004H12.8C13.0208 16.4004 13.2 16.5796 13.2 16.8004V17.2004C13.2 17.4212 13.0208 17.6004 12.8 17.6004H11.2C10.9792 17.6004 10.8 17.4212 10.8 17.2004V16.8004C10.8 16.5796 10.9792 16.4004 11.2 16.4004ZM14.4 16.4004H16C16.2208 16.4004 16.4 16.5796 16.4 16.8004V17.2004C16.4 17.4212 16.2208 17.6004 16 17.6004H14.4C14.1792 17.6004 14 17.4212 14 17.2004V16.8004C14 16.5796 14.1792 16.4004 14.4 16.4004ZM8 18.4004H9.6C9.8208 18.4004 10 18.5796 10 18.8004V19.2004C10 19.4212 9.8208 19.6004 9.6 19.6004H8C7.7792 19.6004 7.6 19.4212 7.6 19.2004V18.8004C7.6 18.5796 7.7792 18.4004 8 18.4004ZM11.2 18.4004H12.8C13.0208 18.4004 13.2 18.5796 13.2 18.8004V19.2004C13.2 19.4212 13.0208 19.6004 12.8 19.6004H11.2C10.9792 19.6004 10.8 19.4212 10.8 19.2004V18.8004C10.8 18.5796 10.9792 18.4004 11.2 18.4004ZM14.4 18.4004H16C16.2208 18.4004 16.4 18.5796 16.4 18.8004V19.2004C16.4 19.4212 16.2208 19.6004 16 19.6004H14.4C14.1792 19.6004 14 19.4212 14 19.2004V18.8004C14 18.5796 14.1792 18.4004 14.4 18.4004Z" fill="white" fill-opacity="0.55"/>
</svg>
