<svg width="24" height="24" viewBox="0 0 24 24" fill="none" xmlns="http://www.w3.org/2000/svg">
<rect opacity="0.2" width="24" height="24" rx="6" fill="white"/>
<g clip-path="url(#clip0)">
<path d="M12.0019 8.91895C10.3004 8.91895 8.92285 10.2979 8.92285 11.9979C8.92285 13.6995 10.3019 15.077 12.0019 15.077C13.7034 15.077 15.0809 13.698 15.0809 11.9979C15.0809 10.2964 13.7019 8.91895 12.0019 8.91895ZM12.0019 13.9965C10.8974 13.9965 10.0034 13.102 10.0034 11.9979C10.0034 10.8939 10.8979 9.99945 12.0019 9.99945C13.1059 9.99945 14.0004 10.8939 14.0004 11.9979C14.0009 13.102 13.1064 13.9965 12.0019 13.9965Z" fill="white"/>
<path d="M14.4738 6.03818C13.3698 5.98668 10.6353 5.98918 9.53028 6.03818C8.55928 6.08368 7.70278 6.31818 7.01228 7.00868C5.85828 8.16268 6.00578 9.71768 6.00578 11.9982C6.00578 14.3322 5.87578 15.8512 7.01228 16.9877C8.17078 18.1457 9.74828 17.9942 12.0018 17.9942C14.3138 17.9942 15.1118 17.9957 15.9293 17.6792C17.0408 17.2477 17.8798 16.2542 17.9618 14.4697C18.0138 13.3652 18.0108 10.6312 17.9618 9.52618C17.8628 7.41968 16.7323 6.14218 14.4738 6.03818ZM16.2213 16.2242C15.4648 16.9807 14.4153 16.9132 11.9873 16.9132C9.48728 16.9132 8.48478 16.9502 7.75328 16.2167C6.91078 15.3782 7.06328 14.0317 7.06328 11.9902C7.06328 9.22768 6.77978 7.23818 9.55228 7.09618C10.1893 7.07368 10.3768 7.06618 11.9803 7.06618L12.0028 7.08118C14.6673 7.08118 16.7578 6.80218 16.8833 9.57418C16.9118 10.2067 16.9183 10.3967 16.9183 11.9977C16.9178 14.4687 16.9648 15.4772 16.2213 16.2242Z" fill="white"/>
<path d="M15.2031 9.51712C15.6004 9.51712 15.9226 9.19499 15.9226 8.79762C15.9226 8.40026 15.6004 8.07812 15.2031 8.07812C14.8057 8.07812 14.4836 8.40026 14.4836 8.79762C14.4836 9.19499 14.8057 9.51712 15.2031 9.51712Z" fill="white"/>
</g>
<defs>
<clipPath id="clip0">
<rect width="12" height="12" fill="white" transform="translate(6 6)"/>
</clipPath>
</defs>
</svg>
