<svg width="24" height="24" viewBox="0 0 24 24" fill="none" xmlns="http://www.w3.org/2000/svg">
<path d="M20 16.6316H16.8V19L12.8 15.4474L16.8 11.8947V14.2632H20V16.6316ZM18.4 4H5.6C5.17565 4 4.76869 4.16635 4.46863 4.46246C4.16857 4.75857 4 5.16018 4 5.57895V15.0526C4 15.4714 4.16857 15.873 4.46863 16.1691C4.76869 16.4652 5.17565 16.6316 5.6 16.6316H11.2V15.0526H5.6V7.15789L12 11.1053L18.4 7.15789V12.6842H20V5.57895C20 5.16018 19.8314 4.75857 19.5314 4.46246C19.2313 4.16635 18.8243 4 18.4 4ZM12 9.52632L5.6 5.57895H18.4L12 9.52632Z" fill="white" fill-opacity="0.55"/>
</svg>
