<svg width="24" height="24" viewBox="0 0 24 24" fill="none" xmlns="http://www.w3.org/2000/svg">
<path d="M11.9999 4V4.12064L9.50394 6.61663H6.49595L6.64859 6.46367L9.11226 4H11.9999Z" fill="white" fill-opacity="0.15"/>
<path d="M17.504 6.61663H14.496L12 4.12064V4H14.8876L17.3513 6.46367L17.504 6.61663Z" fill="#C7C7C7" fill-opacity="0.51"/>
<path d="M6.49599 9.62416L4 12.1205V9.11248L6.34335 6.76913L6.49599 6.61649V9.62416Z" fill="#C4C4C4" fill-opacity="0.42"/>
<path d="M11.8793 20H8.87131L6.49564 17.6243H9.50395L11.8793 20Z" fill="#C7C7C7" fill-opacity="0.51"/>
<path d="M6.49599 14.6166V17.6243H6.49567L4 15.1286V12.1206L6.49599 14.6166Z" fill="#BBBBBB" fill-opacity="0.59"/>
<path d="M20 9.11248V12.1205L17.504 9.62416V6.61649L17.6567 6.76913L20 9.11248Z" fill="#BBBBBB" fill-opacity="0.59"/>
<path d="M20 12.1206V15.1286L17.5043 17.6246L17.504 17.6243V14.6166L20 12.1206Z" fill="#C6C6C6" fill-opacity="0.29"/>
<path d="M17.5043 17.6246L15.1286 20H12.1206L14.4959 17.6243H17.5039L17.5043 17.6246Z" fill="white" fill-opacity="0.15"/>
<path d="M9.50394 17.6241H6.49595V14.6165L9.50394 17.6241Z" fill="#C4C4C4" fill-opacity="0.42"/>
<path d="M9.50394 6.61649L6.49595 9.62416V6.61649H9.50394Z" fill="white" fill-opacity="0.15"/>
<path d="M17.5039 6.61649V9.62416L14.4959 6.61649H17.5039Z" fill="#C4C4C4" fill-opacity="0.42"/>
<path d="M17.5039 14.6165V17.6241H14.4959L17.5039 14.6165Z" fill="white" fill-opacity="0.15"/>
<path d="M6.49599 9.6243V14.6166L4 12.1206L6.49599 9.6243Z" fill="#F7F7F7" fill-opacity="0.55"/>
<path d="M14.496 6.61663H9.50403L12 4.12064L14.496 6.61663Z" fill="#F1F1F1" fill-opacity="0.52"/>
<path d="M14.496 17.6243L12.1207 19.9999L12 20.1206L11.8794 19.9999L9.50403 17.6243H14.496Z" fill="#E4E4E4" fill-opacity="0.28"/>
<path d="M20 12.1206L17.504 14.6166V9.6243L20 12.1206Z" fill="#F7F7F7" fill-opacity="0.55"/>
<path opacity="0.54" d="M14.4959 17.6241L17.5039 14.6165V17.6241H14.4959Z" fill="white" fill-opacity="0.65"/>
</svg>
