<svg width="32" height="24" viewBox="0 0 32 24" fill="none" xmlns="http://www.w3.org/2000/svg">
<rect width="32" height="24" rx="8" fill="url(#paint0_linear)"/>
<path opacity="0.4" d="M16 4.5C11.8594 4.5 8.5 7.85938 8.5 12C8.5 16.1406 11.8594 19.5 16 19.5C20.1406 19.5 23.5 16.1406 23.5 12C23.5 7.85938 20.1406 4.5 16 4.5ZM16 6.21875C16.2781 6.21875 16.55 6.30123 16.7813 6.45575C17.0125 6.61027 17.1928 6.82989 17.2992 7.08685C17.4056 7.34381 17.4335 7.62656 17.3792 7.89935C17.325 8.17213 17.191 8.4227 16.9944 8.61937C16.7977 8.81604 16.5471 8.94997 16.2743 9.00423C16.0016 9.05849 15.7188 9.03064 15.4619 8.92421C15.2049 8.81777 14.9853 8.63753 14.8307 8.40627C14.6762 8.17501 14.5938 7.90313 14.5938 7.625C14.5938 7.25204 14.7419 6.89435 15.0056 6.63063C15.2694 6.36691 15.627 6.21875 16 6.21875ZM20.5992 10.0469C19.4777 10.3117 18.4309 10.5449 17.3906 10.6645C17.4238 14.6098 17.8715 15.4691 18.3672 16.7434C18.4008 16.8294 18.4171 16.9212 18.4152 17.0135C18.4134 17.1059 18.3933 17.1969 18.3562 17.2815C18.3192 17.3661 18.2658 17.4426 18.1992 17.5065C18.1326 17.5705 18.054 17.6207 17.968 17.6543C17.8819 17.6879 17.7901 17.7042 17.6978 17.7023C17.6055 17.7005 17.5144 17.6804 17.4298 17.6433C17.3452 17.6063 17.2688 17.5529 17.2048 17.4863C17.1408 17.4197 17.0906 17.3411 17.057 17.2551C16.7188 16.3844 16.3906 15.6684 16.1891 14.1875H15.8109C15.609 15.666 15.282 16.3832 14.9414 17.2559C14.9078 17.3419 14.8576 17.4205 14.7936 17.4871C14.7297 17.5537 14.6532 17.6071 14.5686 17.6441C14.484 17.6812 14.393 17.7012 14.3006 17.7031C14.2083 17.705 14.1165 17.6887 14.0305 17.6551C13.9444 17.6215 13.8659 17.5713 13.7993 17.5073C13.7326 17.4433 13.6793 17.3669 13.6422 17.2823C13.6051 17.1977 13.5851 17.1066 13.5832 17.0143C13.5813 16.922 13.5977 16.8302 13.6312 16.7441C14.1281 15.473 14.5762 14.6137 14.6078 10.6652C13.5676 10.5457 12.5207 10.3137 11.3992 10.0477C11.2403 10.0074 11.1035 9.90622 11.0185 9.76603C10.9334 9.62584 10.9068 9.45784 10.9445 9.29824C10.9822 9.13865 11.0811 9.00026 11.2198 8.9129C11.3586 8.82554 11.5261 8.79622 11.6863 8.83125C15.4633 9.72305 16.5414 9.72109 20.3105 8.83125C20.4706 8.7881 20.6413 8.8103 20.7849 8.89297C20.9286 8.97564 21.0336 9.11201 21.0768 9.27207C21.1199 9.43213 21.0977 9.60278 21.015 9.74647C20.9324 9.89016 20.796 9.99513 20.6359 10.0383C20.6238 10.0414 20.6117 10.0445 20.5992 10.0469Z" fill="white"/>
<path d="M16 9.03125C16.2781 9.03125 16.55 8.94877 16.7813 8.79425C17.0125 8.63973 17.1928 8.42011 17.2992 8.16315C17.4056 7.90619 17.4335 7.62344 17.3792 7.35065C17.325 7.07787 17.191 6.8273 16.9944 6.63063C16.7977 6.43396 16.5471 6.30003 16.2743 6.24577C16.0016 6.19151 15.7188 6.21936 15.4619 6.32579C15.2049 6.43223 14.9853 6.61247 14.8307 6.84373C14.6762 7.07499 14.5938 7.34687 14.5938 7.625C14.5938 7.99796 14.7419 8.35565 15.0056 8.61937C15.2694 8.88309 15.627 9.03125 16 9.03125ZM20.3121 8.83125C16.543 9.72109 15.4648 9.72305 11.6879 8.83125C11.5293 8.8002 11.3649 8.83177 11.2291 8.91935C11.0933 9.00692 10.9967 9.14368 10.9595 9.30094C10.9224 9.4582 10.9476 9.62374 11.0299 9.76281C11.1121 9.90189 11.2451 10.0037 11.4008 10.0469C12.5223 10.3117 13.5691 10.5449 14.6094 10.6645C14.5762 14.6129 14.1281 15.4723 13.6328 16.7434C13.565 16.9171 13.5689 17.1107 13.6438 17.2815C13.7186 17.4523 13.8583 17.5864 14.032 17.6543C14.2058 17.7222 14.3993 17.7182 14.5702 17.6433C14.741 17.5685 14.8751 17.4288 14.943 17.2551C15.2836 16.3824 15.6105 15.6652 15.8125 14.1867H16.1906C16.393 15.6676 16.7203 16.3836 17.0602 17.2551C17.128 17.4288 17.2621 17.5685 17.4329 17.6433C17.6038 17.7182 17.7974 17.7222 17.9711 17.6543C18.1448 17.5864 18.2845 17.4523 18.3594 17.2815C18.4342 17.1107 18.4382 16.9171 18.3703 16.7434C17.873 15.4711 17.4254 14.6105 17.3937 10.6645C18.434 10.5449 19.4809 10.3129 20.6023 10.0469C20.7619 10.0092 20.9002 9.91037 20.9875 9.77168C21.0749 9.63298 21.1043 9.46553 21.0693 9.30539C21.0344 9.14525 20.9379 9.00524 20.8008 8.91553C20.6636 8.82582 20.4967 8.79359 20.3359 8.82578L20.316 8.83047L20.3121 8.83125ZM16 2.3125C10.6484 2.3125 6.3125 6.64844 6.3125 12C6.3125 17.3516 10.6484 21.6875 16 21.6875C21.3516 21.6875 25.6875 17.3516 25.6875 12C25.6875 6.64844 21.3516 2.3125 16 2.3125ZM16 19.5C11.8594 19.5 8.5 16.1406 8.5 12C8.5 7.85938 11.8594 4.5 16 4.5C20.1406 4.5 23.5 7.85938 23.5 12C23.5 16.1406 20.148 19.4977 16.0078 19.5H16Z" fill="white"/>
<defs>
<linearGradient id="paint0_linear" x1="16" y1="0" x2="16" y2="50.4" gradientUnits="userSpaceOnUse">
<stop stop-color="#4318BE"/>
<stop offset="1" stop-color="#4318BE" stop-opacity="0"/>
</linearGradient>
</defs>
</svg>
