<svg width="12" height="16" viewBox="0 0 12 16" fill="none" xmlns="http://www.w3.org/2000/svg">
<path d="M12 10.4803C12 13.359 9.50794 16 5.99779 16C4.18953 16 2.63959 15.2873 1.5759 14.2114C1.05926 13.6943 0.648982 13.0795 0.390659 12.4227C-0.21716 10.9415 -0.156377 9.22271 0.86172 7.67162L4.52383 2.0262L4.9493 1.36943C5.01008 1.27162 5.17723 1.27162 5.23801 1.36943L5.66349 2.0262L6.02818 2.58515L8.21633 5.96681L9.46236 7.8952L9.81185 8.44017C9.88783 8.55196 9.94861 8.67773 10.0094 8.78952C10.2981 9.34847 10.4349 9.93537 10.4349 10.5083C10.4349 12.4646 8.86973 14.2672 6.60561 14.5328C6.52963 14.5467 6.46885 14.5467 6.39287 14.5467C6.33209 14.5467 6.27131 14.5607 6.19533 14.5607C6.13455 14.5607 6.07377 14.5607 6.01298 14.5607C5.9522 14.5607 5.81544 14.5607 5.80025 14.5607V13.7083V13.6943L7.88203 10.3825H5.54192V12.4227C5.54192 13.2052 5.11645 13.9039 4.35668 14.2812C4.03757 14.1694 3.74886 14.0157 3.47534 13.848C3.39936 13.7921 3.30819 13.7362 3.23221 13.6803C2.51803 13.1493 1.98618 12.4087 1.74306 11.5843C1.65188 11.2769 1.5911 10.9415 1.5759 10.6201C1.56071 9.89345 1.74306 9.13886 2.19892 8.44017L4.50863 4.87685L5.07086 3.99651V4.34585C5.07086 5.25415 4.79735 6.16245 4.2959 6.94498L3.03467 8.88734C2.74596 9.34847 2.57881 9.82358 2.54842 10.2987C2.53322 10.5362 2.54842 10.7738 2.57881 10.9974C2.74596 11.9336 3.36897 12.786 4.2807 13.2611C4.43266 13.0515 4.53902 12.786 4.55422 12.5066V9.47424H8.9761V10.3686L7.00069 13.5686C8.47465 13.1633 9.46236 11.8917 9.46236 10.5223C9.46236 10.2847 9.43197 10.0472 9.37119 9.79563C9.29521 9.48821 9.15845 9.19476 8.9761 8.90131L8.90012 8.77555L7.36538 6.41397L6.01298 4.3179L5.45075 3.43755L5.16204 2.99039C5.13165 2.9345 5.05567 2.9345 5.02528 2.99039L1.68227 8.14673C1.07446 9.08297 0.876914 10.0891 0.998478 11.0533C1.05926 11.5563 1.22641 12.0454 1.45434 12.4926C1.68227 12.9258 1.97099 13.331 2.33568 13.6803C2.38126 13.7362 2.44205 13.7782 2.48763 13.8341C2.79154 14.0996 3.12584 14.3371 3.50573 14.5328C3.53612 14.5467 3.55132 14.5607 3.58171 14.5747C4.02238 14.7983 4.49344 14.952 5.01008 15.0498C5.32919 15.1057 5.64829 15.1336 5.99779 15.1336H6.01298C8.94571 15.1197 11.0275 12.9118 11.0275 10.5083C11.0275 9.72576 10.7996 8.91529 10.3133 8.14673L8.74817 5.72926L5.99779 1.46725L5.43556 0.586899L5.05567 0C5.75466 0 6.40807 0.335371 6.77276 0.894323L9.59912 5.25415L11.1642 7.67162C11.7417 8.57991 12 9.5441 12 10.4803Z" fill="#8C97AB"/>
</svg>
