<svg width="27" height="36" viewBox="0 0 27 36" fill="none" xmlns="http://www.w3.org/2000/svg">
<path d="M26.7614 23.5132C26.7614 29.9173 21.2108 35.8202 13.3779 35.8202C9.34881 35.8202 5.88321 34.2331 3.51645 31.8386C2.36125 30.697 1.45962 29.3048 0.867935 27.8569C-0.484498 24.5713 -0.343619 20.7288 1.91044 17.2761L10.0814 4.69066L11.0394 3.21493C11.1802 2.99218 11.5465 2.99218 11.6874 3.21493L12.6454 4.69066L13.4625 5.94364L18.3087 13.4615L21.0981 17.7495L21.887 18.9746C22.056 19.2252 22.1969 19.5037 22.3378 19.7543C22.9858 21.0072 23.2958 22.3159 23.2958 23.5967C23.2958 27.9682 19.802 31.9778 14.7585 32.5625C14.5895 32.5903 14.4486 32.5903 14.2796 32.5903C14.1387 32.5903 13.9978 32.6182 13.8287 32.6182C13.6879 32.6182 13.547 32.6182 13.4343 32.6182C13.2934 32.6182 12.9835 32.6182 12.9553 32.6182V30.7248V30.697L17.6043 23.3183H12.3636V27.8569C12.3636 29.611 11.4056 31.1425 9.7151 32.0056C9.01071 31.755 8.36267 31.4209 7.7428 31.0311C7.57375 30.9197 7.37652 30.7805 7.20746 30.6691C5.60145 29.4997 4.41807 27.829 3.88273 25.9913C3.6855 25.2952 3.54462 24.5713 3.51645 23.8473C3.48827 22.2324 3.88273 20.5617 4.89706 19.0025L10.0532 11.0391L11.3211 9.09001V9.86964C11.3211 11.9023 10.7012 13.907 9.6024 15.6612L6.75665 19.977C6.10861 21.0072 5.74233 22.0653 5.68598 23.1234C5.6578 23.6524 5.68598 24.1815 5.74233 24.6826C6.10861 26.7709 7.5174 28.6643 9.54605 29.7224C9.88415 29.2491 10.1096 28.6643 10.1659 28.0518V21.2857H20.0274V23.2904L15.632 30.4185C18.9285 29.5275 21.1262 26.6874 21.1262 23.6246C21.1262 23.0955 21.0699 22.5665 20.929 22.0096C20.76 21.3135 20.45 20.6731 20.0556 20.0049L19.8865 19.7264L16.4209 14.4639L13.4061 9.78611L12.1382 7.83703L11.4902 6.83465C11.4338 6.72327 11.2648 6.72327 11.1802 6.83465L3.74185 18.3342C2.38942 20.4225 1.93861 22.65 2.22037 24.8219C2.36125 25.9356 2.72753 27.0215 3.23469 28.0239C3.74185 28.9985 4.3899 29.8895 5.20699 30.6691C5.31969 30.7805 5.4324 30.8919 5.5451 31.0032C6.22131 31.588 6.98206 32.117 7.82733 32.5625C7.88368 32.5903 7.94003 32.6182 7.99638 32.646C8.98253 33.1472 10.025 33.4814 11.1802 33.7041C11.8846 33.8155 12.6172 33.899 13.3779 33.899H13.4061C19.9429 33.8712 24.5919 28.9428 24.5919 23.5967C24.5919 21.8426 24.0847 20.0605 22.9858 18.3342L19.5202 12.9325L13.3779 3.43768L12.11 1.4886L11.2648 0.179932C12.8144 0.179932 14.2796 0.931719 15.0967 2.1847L21.408 11.8744L24.9018 17.2483C26.1979 19.2809 26.7614 21.4527 26.7614 23.5132Z" fill="url(#paint0_linear)"/>
<defs>
<linearGradient id="paint0_linear" x1="6.41094e-08" y1="18.0001" x2="26.7614" y2="18.0001" gradientUnits="userSpaceOnUse">
<stop stop-color="#61E0FF"/>
<stop offset="1" stop-color="#0055EB"/>
</linearGradient>
</defs>
</svg>
