<svg width="24" height="24" viewBox="0 0 24 24" fill="none" xmlns="http://www.w3.org/2000/svg">
<rect opacity="0.2" width="24" height="24" rx="6" fill="white"/>
<g clip-path="url(#clip0)">
<path d="M17.7344 8.96451L17.7494 9.06251C17.6044 8.54801 17.2129 8.15101 16.7154 8.00651L16.7049 8.00401C15.7694 7.75001 12.0049 7.75001 12.0049 7.75001C12.0049 7.75001 8.2499 7.74501 7.3049 8.00401C6.7979 8.15101 6.4059 8.54801 6.2634 9.05201L6.2609 9.06251C5.9114 10.888 5.9089 13.0815 6.2764 15.036L6.2609 14.937C6.4059 15.4515 6.7974 15.8485 7.2949 15.993L7.3054 15.9955C8.2399 16.25 12.0054 16.25 12.0054 16.25C12.0054 16.25 15.7599 16.25 16.7054 15.9955C17.2129 15.8485 17.6049 15.4515 17.7474 14.9475L17.7499 14.937C17.9089 14.088 17.9999 13.111 17.9999 12.113C17.9999 12.0765 17.9999 12.0395 17.9994 12.0025C17.9999 11.9685 17.9999 11.928 17.9999 11.8875C17.9999 10.889 17.9089 9.91201 17.7344 8.96451ZM10.8039 13.8255V10.179L13.9369 12.005L10.8039 13.8255Z" fill="white"/>
</g>
<defs>
<clipPath id="clip0">
<rect width="12" height="12" fill="white" transform="translate(6 6)"/>
</clipPath>
</defs>
</svg>
